# xmcd
#
# Track frame offsets:
#	150
#	11308
#	27354
#	42707
#	63203
#	79118
#	94294
#	109265
#	119000
#	132743
#	153591
#	181503
#
# Disc length: 2827 seconds
#
# Revision: 0
# Processed by: cddbd v1.5.1PL0 Copyright (c) Steve Scherf et al.
# Submitted via: dBpowerAMP V4.0
#
DISCID=a00b090c
DTITLE=Jaime Urrutia - El muchacho eléctrico
DYEAR=2005
DGENRE=Rock
TTITLE0=Clases de rock´n´roll
TTITLE1=Nada por aquí
TTITLE2=Maribel
TTITLE3=Pasimisí, pasimisá
TTITLE4=(Saca tu culo) de aquí
TTITLE5=Si la vida te lo da
TTITLE6=Dame más
TTITLE7=Pitusa
TTITLE8=Cariño
TTITLE9=Azzurro
TTITLE10=El hombre que hay en mí
TTITLE11=DATA
EXTD=
EXTT0=
EXTT1=
EXTT2=
EXTT3=
EXTT4=
EXTT5=
EXTT6=
EXTT7=
EXTT8=
EXTT9=
EXTT10=
EXTT11=
PLAYORDER=
